<?xml version="1.0" standalone="no"?>
<!DOCTYPE svg PUBLIC "-//W3C//DTD SVG 20010904//EN"
 "http://www.w3.org/TR/2001/REC-SVG-20010904/DTD/svg10.dtd">
<svg version="1.0" xmlns="http://www.w3.org/2000/svg"
 width="1280.000000pt" height="1280.000000pt" viewBox="0 0 1280.000000 1280.000000"
 preserveAspectRatio="xMidYMid meet">
<metadata>
Created by potrace 1.14, written by Peter Selinger 2001-2017
</metadata>
<g transform="translate(0.000000,1280.000000) scale(0.100000,-0.100000)"
fill="#000000" stroke="none">
<path d="M6885 11780 c-22 -3 -52 -14 -66 -23 -19 -13 -45 -17 -90 -16 -65 1
-85 -1 -219 -27 -158 -31 -247 -58 -317 -94 -40 -20 -70 -39 -67 -42 3 -3 -8
-9 -23 -12 -39 -10 -99 -52 -155 -108 -31 -31 -57 -48 -72 -48 -15 0 -33 -11
-46 -27 -11 -16 -37 -46 -58 -69 -20 -22 -47 -60 -60 -85 -43 -82 -89 -147
-154 -211 -20 -21 -34 -38 -31 -38 4 0 -4 -12 -18 -27 -46 -52 -99 -139 -119
-197 -11 -33 -24 -64 -30 -71 -17 -21 -62 -148 -76 -220 -8 -38 -19 -95 -25
-125 -15 -72 -15 -202 -6 -895 4 -319 11 -591 16 -605 5 -14 12 -59 14 -100 2
-41 11 -88 20 -105 20 -37 57 -172 57 -205 0 -38 27 -106 76 -196 24 -45 44
-88 44 -98 0 -22 76 -132 123 -177 20 -20 37 -39 37 -42 0 -8 -52 -20 -75 -18
-11 1 -37 -5 -57 -14 -21 -8 -48 -15 -61 -15 -25 0 -200 -71 -224 -92 -8 -7
-26 -36 -38 -65 -30 -67 -78 -129 -140 -183 -71 -61 -89 -99 -81 -174 3 -35 2
-72 -5 -90 -9 -26 -6 -48 25 -150 20 -65 36 -124 36 -131 0 -13 -50 -38 -66
-33 -5 1 -18 -3 -29 -9 -11 -6 -45 -14 -75 -18 -30 -4 -61 -12 -67 -17 -7 -6
-13 -8 -13 -5 0 3 -21 -1 -47 -9 -25 -8 -59 -14 -75 -14 -15 0 -28 -4 -28 -10
0 -5 -9 -10 -20 -10 -12 0 -38 -9 -59 -20 -39 -20 -67 -30 -194 -75 -38 -13
-77 -31 -86 -39 -10 -9 -27 -16 -38 -16 -12 0 -23 -6 -26 -13 -6 -15 -97 -61
-142 -72 -45 -10 -117 -45 -142 -69 -12 -11 -30 -28 -40 -38 -50 -46 -88 -114
-97 -171 -1 -9 -5 -20 -9 -23 -4 -4 -7 -31 -7 -59 0 -37 -6 -60 -20 -77 -37
-48 -89 -177 -96 -241 -4 -34 -13 -74 -20 -89 -8 -15 -14 -35 -14 -46 0 -10
-5 -23 -12 -30 -6 -6 -13 -18 -14 -25 -2 -17 -62 -116 -89 -147 -36 -42 -55
-78 -55 -104 0 -14 -4 -27 -9 -30 -4 -3 -11 -49 -15 -103 -4 -54 -14 -127 -23
-163 -18 -78 -10 -163 18 -199 10 -13 19 -30 19 -37 0 -8 9 -19 20 -26 11 -7
20 -20 20 -30 0 -9 5 -20 10 -23 6 -3 10 -18 10 -33 0 -15 9 -42 20 -60 26
-42 25 -64 -4 -122 -13 -27 -22 -50 -20 -53 2 -2 -2 -10 -11 -17 -8 -7 -15
-21 -15 -32 0 -10 -3 -17 -7 -15 -5 3 -9 -14 -9 -37 -2 -53 -38 -160 -63 -188
-11 -11 -31 -52 -44 -92 -30 -87 -41 -117 -84 -228 -18 -49 -33 -96 -33 -105
-1 -10 -7 -29 -15 -43 -8 -14 -14 -39 -15 -55 0 -17 -13 -84 -29 -150 -29
-120 -42 -212 -46 -335 -1 -36 -9 -94 -18 -130 -8 -36 -21 -128 -27 -205 -13
-157 -4 -269 29 -333 10 -20 22 -53 26 -72 13 -59 33 -88 129 -183 103 -102
116 -121 116 -169 0 -33 62 -167 83 -180 23 -15 49 -8 104 28 47 30 62 35 92
30 20 -4 74 -11 120 -16 66 -7 90 -14 110 -33 23 -21 109 -66 128 -67 5 -1 30
-20 57 -44 45 -40 49 -47 62 -117 34 -174 35 -238 19 -732 l-7 -207 2313 0
2313 0 75 37 c42 20 82 45 89 55 7 10 20 18 29 18 19 0 122 105 140 141 25 53
41 202 36 341 l-6 136 26 26 c14 14 35 26 46 26 11 0 23 5 26 10 3 6 14 10 23
10 9 1 29 11 43 23 30 25 43 85 78 362 7 50 16 104 21 120 10 31 37 249 46
370 3 39 9 86 14 105 5 19 16 68 24 108 9 39 23 103 32 141 9 38 18 86 19 108
2 21 11 79 19 128 9 50 20 151 26 225 13 172 38 336 62 405 6 17 14 50 19 75
11 61 25 122 33 140 4 9 11 54 15 100 38 359 39 403 46 1030 6 651 12 755 45
820 23 45 14 105 -24 155 -15 19 -29 45 -31 58 -3 12 -14 34 -25 49 -11 15
-20 34 -20 43 0 39 -52 105 -83 105 -13 0 -17 5 -14 15 10 26 -149 147 -198
151 -30 2 -56 15 -49 25 3 5 -8 9 -24 9 -43 0 -198 59 -224 85 -13 12 -38 30
-55 40 -18 11 -33 22 -33 25 0 13 -74 80 -88 80 -29 0 -158 33 -207 52 -27 11
-64 32 -81 47 -59 50 -74 61 -82 61 -4 0 -20 7 -37 16 -16 9 -55 22 -85 30
-106 24 -170 57 -170 86 0 22 -35 42 -56 30 -10 -6 -31 -1 -61 15 -26 13 -55
23 -65 23 -31 0 -106 49 -125 81 -10 16 -21 29 -25 29 -4 0 -8 9 -8 19 0 10
-14 33 -30 51 -28 30 -38 48 -68 123 -7 15 -16 27 -22 27 -22 0 -52 38 -48 61
4 34 36 37 48 4 11 -29 30 -25 30 5 0 34 23 71 54 88 31 16 48 21 96 25 14 1
28 6 31 10 3 5 -2 38 -12 75 -10 37 -19 76 -19 86 0 11 -7 27 -15 36 -15 16
-19 58 -16 167 1 23 10 63 21 88 11 26 20 55 20 65 0 11 7 39 15 62 8 26 17
108 21 203 4 88 8 176 9 195 5 112 3 106 60 164 30 30 55 60 55 66 0 6 10 21
23 33 34 34 99 174 113 247 7 36 18 88 24 115 6 28 11 78 11 112 0 34 5 79 11
100 5 21 14 72 19 113 27 226 42 330 54 375 26 90 29 304 7 440 -30 182 -75
353 -114 430 -14 28 -31 75 -38 105 -7 30 -19 64 -26 75 -8 11 -14 27 -14 37
0 10 -4 18 -10 18 -5 0 -10 4 -10 10 0 5 -22 32 -50 60 -27 28 -50 55 -50 60
0 6 -4 10 -9 10 -6 0 -22 11 -37 25 -15 14 -38 28 -52 32 -43 11 -99 80 -88
110 6 15 -15 43 -33 43 -6 0 -11 6 -11 13 0 13 -65 37 -102 37 -30 0 -52 15
-44 28 4 6 -15 23 -41 39 -27 15 -50 31 -51 35 -6 15 -60 38 -87 38 -22 0 -25
4 -25 34 0 41 -11 46 -90 46 -54 0 -62 3 -94 35 -33 33 -39 35 -102 35 -68 0
-144 -16 -155 -33 -4 -6 -21 -1 -40 10 -39 23 -96 32 -154 23z m-1517 -1670
l28 -21 -8 -86 c-6 -60 -17 -102 -34 -137 -15 -29 -28 -76 -31 -113 -4 -43
-12 -71 -26 -86 l-20 -22 7 80 c4 44 11 132 16 195 9 103 28 210 37 210 2 0
16 -9 31 -20z m2337 -1880 c10 8 18 4 34 -19 12 -16 21 -32 21 -35 0 -3 13
-25 29 -48 25 -36 27 -45 17 -58 -8 -8 -11 -20 -9 -27 4 -12 -39 -87 -57 -98
-21 -13 -54 -102 -58 -157 l-4 -57 -37 17 c-73 33 -74 34 -67 157 3 61 10 135
16 165 6 30 12 62 13 71 5 25 47 79 63 79 8 0 14 6 15 13 0 9 2 9 6 -1 4 -9 8
-10 18 -2z"/>
</g>
</svg>
